<svg xmlns="http://www.w3.org/2000/svg" viewBox="0 0 61 9" width="732" height="108" shape-rendering="crispEdges"><rect x="0" y="0" width="7" height="1" fill="#14171d"/><rect x="2" y="1" width="2" height="1" fill="#14171d"/><rect x="2" y="2" width="2" height="1" fill="#14171d"/><rect x="2" y="3" width="2" height="1" fill="#14171d"/><rect x="2" y="4" width="2" height="1" fill="#14171d"/><rect x="2" y="5" width="2" height="1" fill="#14171d"/><rect x="2" y="6" width="2" height="1" fill="#14171d"/><rect x="2" y="7" width="2" height="1" fill="#14171d"/><rect x="2" y="8" width="2" height="1" fill="#14171d"/><rect x="10" y="0" width="5" height="1" fill="#14171d"/><rect x="9" y="1" width="2" height="1" fill="#14171d"/><rect x="14" y="1" width="2" height="1" fill="#14171d"/><rect x="9" y="2" width="2" height="1" fill="#14171d"/><rect x="14" y="2" width="2" height="1" fill="#14171d"/><rect x="9" y="3" width="2" height="1" fill="#14171d"/><rect x="14" y="3" width="2" height="1" fill="#14171d"/><rect x="9" y="4" width="2" height="1" fill="#14171d"/><rect x="14" y="4" width="2" height="1" fill="#14171d"/><rect x="9" y="5" width="2" height="1" fill="#14171d"/><rect x="14" y="5" width="2" height="1" fill="#14171d"/><rect x="9" y="6" width="2" height="1" fill="#14171d"/><rect x="14" y="6" width="2" height="1" fill="#14171d"/><rect x="9" y="7" width="2" height="1" fill="#14171d"/><rect x="14" y="7" width="2" height="1" fill="#14171d"/><rect x="10" y="8" width="5" height="1" fill="#14171d"/><rect x="18" y="0" width="2" height="1" fill="#14171d"/><rect x="18" y="1" width="2" height="1" fill="#14171d"/><rect x="18" y="2" width="2" height="1" fill="#14171d"/><rect x="18" y="3" width="2" height="1" fill="#14171d"/><rect x="18" y="4" width="2" height="1" fill="#14171d"/><rect x="18" y="5" width="2" height="1" fill="#14171d"/><rect x="18" y="6" width="2" height="1" fill="#14171d"/><rect x="18" y="7" width="2" height="1" fill="#14171d"/><rect x="18" y="8" width="7" height="1" fill="#14171d"/><rect x="27" y="0" width="2" height="1" fill="#14171d"/><rect x="27" y="1" width="2" height="1" fill="#14171d"/><rect x="27" y="2" width="2" height="1" fill="#14171d"/><rect x="27" y="3" width="2" height="1" fill="#14171d"/><rect x="27" y="4" width="2" height="1" fill="#14171d"/><rect x="27" y="5" width="2" height="1" fill="#14171d"/><rect x="27" y="6" width="2" height="1" fill="#14171d"/><rect x="27" y="7" width="2" height="1" fill="#14171d"/><rect x="27" y="8" width="7" height="1" fill="#14171d"/><rect x="36" y="0" width="6" height="1" fill="#14171d"/><rect x="36" y="1" width="2" height="1" fill="#14171d"/><rect x="41" y="1" width="2" height="1" fill="#14171d"/><rect x="36" y="2" width="2" height="1" fill="#14171d"/><rect x="41" y="2" width="2" height="1" fill="#14171d"/><rect x="36" y="3" width="2" height="1" fill="#14171d"/><rect x="41" y="3" width="2" height="1" fill="#14171d"/><rect x="36" y="4" width="6" height="1" fill="#14171d"/><rect x="36" y="5" width="2" height="1" fill="#14171d"/><rect x="36" y="6" width="2" height="1" fill="#14171d"/><rect x="36" y="7" width="2" height="1" fill="#14171d"/><rect x="36" y="8" width="2" height="1" fill="#14171d"/><rect x="47" y="0" width="3" height="1" fill="#14171d"/><rect x="46" y="1" width="2" height="1" fill="#14171d"/><rect x="49" y="1" width="2" height="1" fill="#14171d"/><rect x="45" y="2" width="2" height="1" fill="#14171d"/><rect x="50" y="2" width="2" height="1" fill="#14171d"/><rect x="45" y="3" width="2" height="1" fill="#14171d"/><rect x="50" y="3" width="2" height="1" fill="#14171d"/><rect x="45" y="4" width="7" height="1" fill="#14171d"/><rect x="45" y="5" width="2" height="1" fill="#14171d"/><rect x="50" y="5" width="2" height="1" fill="#14171d"/><rect x="45" y="6" width="2" height="1" fill="#14171d"/><rect x="50" y="6" width="2" height="1" fill="#14171d"/><rect x="45" y="7" width="2" height="1" fill="#14171d"/><rect x="50" y="7" width="2" height="1" fill="#14171d"/><rect x="45" y="8" width="2" height="1" fill="#14171d"/><rect x="50" y="8" width="2" height="1" fill="#14171d"/><rect x="54" y="0" width="5" height="1" fill="#14171d"/><rect x="54" y="1" width="2" height="1" fill="#14171d"/><rect x="58" y="1" width="2" height="1" fill="#14171d"/><rect x="54" y="2" width="2" height="1" fill="#14171d"/><rect x="59" y="2" width="2" height="1" fill="#14171d"/><rect x="54" y="3" width="2" height="1" fill="#14171d"/><rect x="59" y="3" width="2" height="1" fill="#14171d"/><rect x="54" y="4" width="2" height="1" fill="#14171d"/><rect x="59" y="4" width="2" height="1" fill="#14171d"/><rect x="54" y="5" width="2" height="1" fill="#14171d"/><rect x="59" y="5" width="2" height="1" fill="#14171d"/><rect x="54" y="6" width="2" height="1" fill="#14171d"/><rect x="59" y="6" width="2" height="1" fill="#14171d"/><rect x="54" y="7" width="2" height="1" fill="#14171d"/><rect x="58" y="7" width="2" height="1" fill="#14171d"/><rect x="54" y="8" width="5" height="1" fill="#14171d"/></svg>